<svg width="111" height="64" viewBox="0 0 111 64" fill="none" xmlns="http://www.w3.org/2000/svg">
<g filter="url(#filter0_d_41_186)">
<path d="M41.2963 0.370373H50.5556V9.62963H41.2963V0.370373ZM50.5556 0.370373H59.8148V9.62963H50.5556V0.370373ZM59.8148 0.370373H69.0741V9.62963H59.8148V0.370373ZM59.8148 9.62963H69.0741V18.8889H59.8148V9.62963ZM69.0741 9.62963H78.3333V18.8889H69.0741V9.62963ZM69.0741 18.8889H78.3333V28.1481H69.0741V18.8889ZM78.3333 18.8889H87.5926V28.1481H78.3333V18.8889ZM78.3333 28.1481H87.5926V37.4074H78.3333V28.1481ZM87.5926 28.1481H96.8519V37.4074H87.5926V28.1481ZM87.5926 37.4074H96.8519V46.6667H87.5926V37.4074ZM96.8519 37.4074H106.111V46.6667H96.8519V37.4074ZM96.8519 46.6667H106.111V55.9259H96.8519V46.6667ZM87.5926 46.6667H96.8519V55.9259H87.5926V46.6667ZM78.3333 46.6667H87.5926V55.9259H78.3333V46.6667ZM78.3333 37.4074H87.5926V46.6667H78.3333V37.4074ZM69.0741 37.4074H78.3333V46.6667H69.0741V37.4074ZM69.0741 28.1481H78.3333V37.4074H69.0741V28.1481ZM59.8148 28.1481H69.0741V37.4074H59.8148V28.1481ZM59.8148 18.8889H69.0741V28.1481H59.8148V18.8889ZM50.5556 18.8889H59.8148V28.1481H50.5556V18.8889ZM50.5556 9.62963H59.8148V18.8889H50.5556V9.62963ZM41.2963 9.62963H50.5556V18.8889H41.2963V9.62963ZM41.2963 18.8889H50.5556V28.1481H41.2963V18.8889ZM41.2963 28.1481H50.5556V37.4074H41.2963V28.1481ZM32.037 28.1481H41.2963V37.4074H32.037V28.1481ZM32.037 37.4074H41.2963V46.6667H32.037V37.4074ZM22.7778 37.4074H32.037V46.6667H22.7778V37.4074ZM22.7778 46.6667H32.037V55.9259H22.7778V46.6667ZM13.5185 46.6667H22.7778V55.9259H13.5185V46.6667ZM4.25926 46.6667H13.5185V55.9259H4.25926V46.6667ZM4.25926 37.4074H13.5185V46.6667H4.25926V37.4074ZM13.5185 37.4074H22.7778V46.6667H13.5185V37.4074ZM13.5185 28.1481H22.7778V37.4074H13.5185V28.1481ZM22.7778 28.1481H32.037V37.4074H22.7778V28.1481ZM22.7778 18.8889H32.037V28.1481H22.7778V18.8889ZM32.037 18.8889H41.2963V28.1481H32.037V18.8889ZM32.037 9.62963H41.2963V18.8889H32.037V9.62963Z" fill="#D36255"/>
</g>
<defs>
<filter id="filter0_d_41_186" x="0.259277" y="0.370361" width="109.852" height="63.5555" filterUnits="userSpaceOnUse" color-interpolation-filters="sRGB">
<feFlood flood-opacity="0" result="BackgroundImageFix"/>
<feColorMatrix in="SourceAlpha" type="matrix" values="0 0 0 0 0 0 0 0 0 0 0 0 0 0 0 0 0 0 127 0" result="hardAlpha"/>
<feOffset dy="4"/>
<feGaussianBlur stdDeviation="2"/>
<feComposite in2="hardAlpha" operator="out"/>
<feColorMatrix type="matrix" values="0 0 0 0 0 0 0 0 0 0 0 0 0 0 0 0 0 0 0.25 0"/>
<feBlend mode="normal" in2="BackgroundImageFix" result="effect1_dropShadow_41_186"/>
<feBlend mode="normal" in="SourceGraphic" in2="effect1_dropShadow_41_186" result="shape"/>
</filter>
</defs>
</svg>
