<svg width="371" height="89" viewBox="0 0 371 89" fill="none" xmlns="http://www.w3.org/2000/svg">
<g filter="url(#filter0_d_228_2)">
<path d="M10.963 13.963H14.4444V17.4444H10.963V13.963ZM14.4444 13.963H17.9259V17.4444H14.4444V13.963ZM17.9259 13.963H21.4074V17.4444H17.9259V13.963ZM21.4074 13.963H24.8889V17.4444H21.4074V13.963ZM24.8889 13.963H28.3704V17.4444H24.8889V13.963ZM28.3704 13.963H31.8519V17.4444H28.3704V13.963ZM28.3704 17.4444H31.8519V20.9259H28.3704V17.4444ZM31.8519 17.4444H35.3333V20.9259H31.8519V17.4444ZM24.8889 17.4444H28.3704V20.9259H24.8889V17.4444ZM21.4074 17.4444H24.8889V20.9259H21.4074V17.4444ZM17.9259 17.4444H21.4074V20.9259H17.9259V17.4444ZM14.4444 17.4444H17.9259V20.9259H14.4444V17.4444ZM10.963 17.4444H14.4444V20.9259H10.963V17.4444ZM7.48148 20.9259H10.963V24.4074H7.48148V20.9259ZM7.48148 17.4444H10.963V20.9259H7.48148V17.4444ZM4 20.9259H7.48148V24.4074H4V20.9259ZM10.963 20.9259H14.4444V24.4074H10.963V20.9259ZM14.4444 20.9259H17.9259V24.4074H14.4444V20.9259ZM17.9259 20.9259H21.4074V24.4074H17.9259V20.9259ZM21.4074 20.9259H24.8889V24.4074H21.4074V20.9259ZM24.8889 20.9259H28.3704V24.4074H24.8889V20.9259ZM28.3704 20.9259H31.8519V24.4074H28.3704V20.9259ZM31.8519 20.9259H35.3333V24.4074H31.8519V20.9259ZM35.3333 20.9259H38.8148V24.4074H35.3333V20.9259ZM35.3333 24.4074H38.8148V27.8889H35.3333V24.4074ZM31.8519 24.4074H35.3333V27.8889H31.8519V24.4074ZM28.3704 24.4074H31.8519V27.8889H28.3704V24.4074ZM35.3333 48.7778H38.8148V52.2593H35.3333V48.7778ZM35.3333 52.2593H38.8148V55.7407H35.3333V52.2593ZM35.3333 55.7407H38.8148V59.2222H35.3333V55.7407ZM31.8519 55.7407H35.3333V59.2222H31.8519V55.7407ZM31.8519 52.2593H35.3333V55.7407H31.8519V52.2593ZM31.8519 48.7778H35.3333V52.2593H31.8519V48.7778ZM28.3704 48.7778H31.8519V52.2593H28.3704V48.7778ZM28.3704 52.2593H31.8519V55.7407H28.3704V52.2593ZM24.8889 52.2593H28.3704V55.7407H24.8889V52.2593ZM28.3704 55.7407H31.8519V59.2222H28.3704V55.7407ZM31.8519 59.2222H35.3333V62.7037H31.8519V59.2222ZM28.3704 59.2222H31.8519V62.7037H28.3704V59.2222ZM24.8889 55.7407H28.3704V59.2222H24.8889V55.7407ZM24.8889 59.2222H28.3704V62.7037H24.8889V59.2222ZM28.3704 62.7037H31.8519V66.1852H28.3704V62.7037ZM24.8889 62.7037H28.3704V66.1852H24.8889V62.7037ZM21.4074 62.7037H24.8889V66.1852H21.4074V62.7037ZM17.9259 62.7037H21.4074V66.1852H17.9259V62.7037ZM14.4444 62.7037H17.9259V66.1852H14.4444V62.7037ZM10.963 62.7037H14.4444V66.1852H10.963V62.7037ZM10.963 59.2222H14.4444V62.7037H10.963V59.2222ZM14.4444 59.2222H17.9259V62.7037H14.4444V59.2222ZM14.4444 55.7407H17.9259V59.2222H14.4444V55.7407ZM17.9259 55.7407H21.4074V59.2222H17.9259V55.7407ZM21.4074 55.7407H24.8889V59.2222H21.4074V55.7407ZM21.4074 59.2222H24.8889V62.7037H21.4074V59.2222ZM17.9259 59.2222H21.4074V62.7037H17.9259V59.2222ZM7.48148 59.2222H10.963V62.7037H7.48148V59.2222ZM10.963 55.7407H14.4444V59.2222H10.963V55.7407ZM14.4444 52.2593H17.9259V55.7407H14.4444V52.2593ZM10.963 52.2593H14.4444V55.7407H10.963V52.2593ZM7.48148 52.2593H10.963V55.7407H7.48148V52.2593ZM7.48148 55.7407H10.963V59.2222H7.48148V55.7407ZM4 55.7407H7.48148V59.2222H4V55.7407ZM4 52.2593H7.48148V55.7407H4V52.2593ZM4 48.7778H7.48148V52.2593H4V48.7778ZM4 45.2963H7.48148V48.7778H4V45.2963ZM4 41.8148H7.48148V45.2963H4V41.8148ZM4 38.3333H7.48148V41.8148H4V38.3333ZM4 34.8518H7.48148V38.3333H4V34.8518ZM4 31.3704H7.48148V34.8518H4V31.3704ZM4 27.8889H7.48148V31.3704H4V27.8889ZM4 24.4074H7.48148V27.8889H4V24.4074ZM7.48148 24.4074H10.963V27.8889H7.48148V24.4074ZM10.963 24.4074H14.4444V27.8889H10.963V24.4074ZM14.4444 24.4074H17.9259V27.8889H14.4444V24.4074ZM10.963 27.8889H14.4444V31.3704H10.963V27.8889ZM10.963 31.3704H14.4444V34.8518H10.963V31.3704ZM10.963 34.8518H14.4444V38.3333H10.963V34.8518ZM10.963 38.3333H14.4444V41.8148H10.963V38.3333ZM10.963 41.8148H14.4444V45.2963H10.963V41.8148ZM10.963 45.2963H14.4444V48.7778H10.963V45.2963ZM10.963 48.7778H14.4444V52.2593H10.963V48.7778ZM7.48148 48.7778H10.963V52.2593H7.48148V48.7778ZM7.48148 45.2963H10.963V48.7778H7.48148V45.2963ZM7.48148 41.8148H10.963V45.2963H7.48148V41.8148ZM7.48148 38.3333H10.963V41.8148H7.48148V38.3333ZM7.48148 34.8518H10.963V38.3333H7.48148V34.8518ZM7.48148 31.3704H10.963V34.8518H7.48148V31.3704ZM7.48148 27.8889H10.963V31.3704H7.48148V27.8889ZM21.4074 34.8518H24.8889V38.3333H21.4074V34.8518ZM24.8889 34.8518H28.3704V38.3333H24.8889V34.8518ZM28.3704 34.8518H31.8519V38.3333H28.3704V34.8518ZM31.8519 34.8518H35.3333V38.3333H31.8519V34.8518ZM35.3333 34.8518H38.8148V38.3333H35.3333V34.8518ZM35.3333 38.3333H38.8148V41.8148H35.3333V38.3333ZM35.3333 41.8148H38.8148V45.2963H35.3333V41.8148ZM35.3333 45.2963H38.8148V48.7778H35.3333V45.2963ZM31.8519 45.2963H35.3333V48.7778H31.8519V45.2963ZM28.3704 45.2963H31.8519V48.7778H28.3704V45.2963ZM28.3704 41.8148H31.8519V45.2963H28.3704V41.8148ZM28.3704 38.3333H31.8519V41.8148H28.3704V38.3333ZM31.8519 38.3333H35.3333V41.8148H31.8519V38.3333ZM31.8519 41.8148H35.3333V45.2963H31.8519V41.8148ZM24.8889 41.8148H28.3704V45.2963H24.8889V41.8148ZM21.4074 41.8148H24.8889V45.2963H21.4074V41.8148ZM21.4074 38.3333H24.8889V41.8148H21.4074V38.3333ZM24.8889 38.3333H28.3704V41.8148H24.8889V38.3333Z" fill="#ABC26E"/>
<path d="M45.7676 13.963H49.2491V17.4444H45.7676V13.963ZM45.7676 17.4444H49.2491V20.9259H45.7676V17.4444ZM45.7676 20.9259H49.2491V24.4074H45.7676V20.9259ZM45.7676 31.3704H49.2491V34.8518H45.7676V31.3704ZM45.7676 34.8518H49.2491V38.3333H45.7676V34.8518ZM45.7676 38.3333H49.2491V41.8148H45.7676V38.3333ZM45.7676 41.8148H49.2491V45.2963H45.7676V41.8148ZM45.7676 45.2963H49.2491V48.7778H45.7676V45.2963ZM45.7676 48.7778H49.2491V52.2593H45.7676V48.7778ZM45.7676 52.2593H49.2491V55.7407H45.7676V52.2593ZM45.7676 55.7407H49.2491V59.2222H45.7676V55.7407ZM45.7676 59.2222H49.2491V62.7037H45.7676V59.2222ZM45.7676 62.7037H49.2491V66.1852H45.7676V62.7037ZM49.2491 62.7037H52.7305V66.1852H49.2491V62.7037ZM52.7305 62.7037H56.212V66.1852H52.7305V62.7037ZM52.7305 59.2222H56.212V62.7037H52.7305V59.2222ZM52.7305 55.7407H56.212V59.2222H52.7305V55.7407ZM52.7305 52.2593H56.212V55.7407H52.7305V52.2593ZM52.7305 48.7778H56.212V52.2593H52.7305V48.7778ZM52.7305 45.2963H56.212V48.7778H52.7305V45.2963ZM52.7305 41.8148H56.212V45.2963H52.7305V41.8148ZM52.7305 38.3333H56.212V41.8148H52.7305V38.3333ZM52.7305 34.8518H56.212V38.3333H52.7305V34.8518ZM52.7305 13.963H56.212V17.4444H52.7305V13.963ZM49.2491 13.963H52.7305V17.4444H49.2491V13.963ZM49.2491 17.4444H52.7305V20.9259H49.2491V17.4444ZM52.7305 17.4444H56.212V20.9259H52.7305V17.4444ZM52.7305 20.9259H56.212V24.4074H52.7305V20.9259ZM52.7305 31.3704H56.212V34.8518H52.7305V31.3704ZM49.2491 20.9259H52.7305V24.4074H49.2491V20.9259ZM49.2491 31.3704H52.7305V34.8518H49.2491V31.3704ZM49.2491 34.8518H52.7305V38.3333H49.2491V34.8518ZM49.2491 59.2222H52.7305V62.7037H49.2491V59.2222ZM49.2491 55.7407H52.7305V59.2222H49.2491V55.7407ZM49.2491 52.2593H52.7305V55.7407H49.2491V52.2593ZM49.2491 48.7778H52.7305V52.2593H49.2491V48.7778ZM49.2491 45.2963H52.7305V48.7778H49.2491V45.2963ZM49.2491 41.8148H52.7305V45.2963H49.2491V41.8148ZM49.2491 38.3333H52.7305V41.8148H49.2491V38.3333Z" fill="#94A756"/>
<path d="M70.1719 27.8889H73.6534V31.3704H70.1719V27.8889ZM73.6534 27.8889H77.1349V31.3704H73.6534V27.8889ZM77.1349 27.8889H80.6164V31.3704H77.1349V27.8889ZM80.6164 27.8889H84.0979V31.3704H80.6164V27.8889ZM84.0979 27.8889H87.5794V31.3704H84.0979V27.8889ZM87.5794 27.8889H91.0608V31.3704H87.5794V27.8889ZM91.0608 31.3704H94.5423V34.8518H91.0608V31.3704ZM87.5794 31.3704H91.0608V34.8518H87.5794V31.3704ZM84.0979 31.3704H87.5794V34.8518H84.0979V31.3704ZM80.6164 31.3704H84.0979V34.8518H80.6164V31.3704ZM77.1349 31.3704H80.6164V34.8518H77.1349V31.3704ZM73.6534 31.3704H77.1349V34.8518H73.6534V31.3704ZM70.1719 31.3704H73.6534V34.8518H70.1719V31.3704ZM66.6905 31.3704H70.1719V34.8518H66.6905V31.3704ZM66.6905 34.8518H70.1719V38.3333H66.6905V34.8518ZM70.1719 34.8518H73.6534V38.3333H70.1719V34.8518ZM63.209 34.8518H66.6905V38.3333H63.209V34.8518ZM63.209 38.3333H66.6905V41.8148H63.209V38.3333ZM63.209 41.8148H66.6905V45.2963H63.209V41.8148ZM66.6905 41.8148H70.1719V45.2963H66.6905V41.8148ZM70.1719 41.8148H73.6534V45.2963H70.1719V41.8148ZM70.1719 38.3333H73.6534V41.8148H70.1719V38.3333ZM66.6905 38.3333H70.1719V41.8148H66.6905V38.3333ZM66.6905 45.2963H70.1719V48.7778H66.6905V45.2963ZM66.6905 48.7778H70.1719V52.2593H66.6905V48.7778ZM66.6905 52.2593H70.1719V55.7407H66.6905V52.2593ZM63.209 52.2593H66.6905V55.7407H63.209V52.2593ZM63.209 55.7407H66.6905V59.2222H63.209V55.7407ZM63.209 48.7778H66.6905V52.2593H63.209V48.7778ZM63.209 45.2963H66.6905V48.7778H63.209V45.2963ZM70.1719 45.2963H73.6534V48.7778H70.1719V45.2963ZM70.1719 48.7778H73.6534V52.2593H70.1719V48.7778ZM70.1719 52.2593H73.6534V55.7407H70.1719V52.2593ZM70.1719 55.7407H73.6534V59.2222H70.1719V55.7407ZM66.6905 55.7407H70.1719V59.2222H66.6905V55.7407ZM66.6905 59.2222H70.1719V62.7037H66.6905V59.2222ZM70.1719 59.2222H73.6534V62.7037H70.1719V59.2222ZM73.6534 59.2222H77.1349V62.7037H73.6534V59.2222ZM73.6534 55.7407H77.1349V59.2222H73.6534V55.7407ZM70.1719 62.7037H73.6534V66.1852H70.1719V62.7037ZM73.6534 62.7037H77.1349V66.1852H73.6534V62.7037ZM77.1349 62.7037H80.6164V66.1852H77.1349V62.7037ZM80.6164 62.7037H84.0979V66.1852H80.6164V62.7037ZM84.0979 62.7037H87.5794V66.1852H84.0979V62.7037ZM87.5794 62.7037H91.0608V66.1852H87.5794V62.7037ZM84.0979 59.2222H87.5794V62.7037H84.0979V59.2222ZM80.6164 59.2222H84.0979V62.7037H80.6164V59.2222ZM77.1349 59.2222H80.6164V62.7037H77.1349V59.2222ZM87.5794 59.2222H91.0608V62.7037H87.5794V59.2222ZM91.0608 59.2222H94.5423V62.7037H91.0608V59.2222ZM87.5794 55.7407H91.0608V59.2222H87.5794V55.7407ZM84.0979 55.7407H87.5794V59.2222H84.0979V55.7407ZM91.0608 55.7407H94.5423V59.2222H91.0608V55.7407ZM94.5423 55.7407H98.0238V59.2222H94.5423V55.7407ZM91.0608 38.3333H94.5423V41.8148H91.0608V38.3333ZM94.5423 38.3333H98.0238V41.8148H94.5423V38.3333ZM94.5423 34.8518H98.0238V38.3333H94.5423V34.8518ZM87.5794 38.3333H91.0608V41.8148H87.5794V38.3333ZM87.5794 34.8518H91.0608V38.3333H87.5794V34.8518ZM91.0608 34.8518H94.5423V38.3333H91.0608V34.8518ZM77.1349 55.7407H80.6164V59.2222H77.1349V55.7407ZM80.6164 55.7407H84.0979V59.2222H80.6164V55.7407ZM94.5423 41.8148H98.0238V45.2963H94.5423V41.8148ZM91.0608 41.8148H94.5423V45.2963H91.0608V41.8148ZM87.5794 41.8148H91.0608V45.2963H87.5794V41.8148ZM77.1349 45.2963H80.6164V48.7778H77.1349V45.2963ZM80.6164 45.2963H84.0979V48.7778H80.6164V45.2963ZM84.0979 45.2963H87.5794V48.7778H84.0979V45.2963ZM87.5794 45.2963H91.0608V48.7778H87.5794V45.2963ZM91.0608 45.2963H94.5423V48.7778H91.0608V45.2963ZM94.5423 45.2963H98.0238V48.7778H94.5423V45.2963ZM73.6534 45.2963H77.1349V48.7778H73.6534V45.2963ZM73.6534 34.8518H77.1349V38.3333H73.6534V34.8518ZM77.1349 34.8518H80.6164V38.3333H77.1349V34.8518ZM80.6164 34.8518H84.0979V38.3333H80.6164V34.8518ZM84.0979 34.8518H87.5794V38.3333H84.0979V34.8518ZM94.5423 48.7778H98.0238V52.2593H94.5423V48.7778ZM91.0608 48.7778H94.5423V52.2593H91.0608V48.7778ZM84.0979 48.7778H87.5794V52.2593H84.0979V48.7778ZM80.6164 48.7778H84.0979V52.2593H80.6164V48.7778ZM77.1349 48.7778H80.6164V52.2593H77.1349V48.7778ZM73.6534 48.7778H77.1349V52.2593H73.6534V48.7778ZM87.5794 48.7778H91.0608V52.2593H87.5794V48.7778Z" fill="#94A756"/>
<path d="M136.31 27.8889H139.791V31.3704H136.31V27.8889ZM132.828 27.8889H136.31V31.3704H132.828V27.8889ZM125.865 27.8889H129.347V31.3704H125.865V27.8889ZM122.384 27.8889H125.865V31.3704H122.384V27.8889ZM118.902 27.8889H122.384V31.3704H118.902V27.8889ZM115.421 27.8889H118.902V31.3704H115.421V27.8889ZM111.94 27.8889H115.421V31.3704H111.94V27.8889ZM111.94 31.3704H115.421V34.8518H111.94V31.3704ZM115.421 31.3704H118.902V34.8518H115.421V31.3704ZM129.347 31.3704H132.828V34.8518H129.347V31.3704ZM129.347 27.8889H132.828V31.3704H129.347V27.8889ZM122.384 31.3704H125.865V34.8518H122.384V31.3704ZM118.902 31.3704H122.384V34.8518H118.902V31.3704ZM125.865 31.3704H129.347V34.8518H125.865V31.3704ZM132.828 31.3704H136.31V34.8518H132.828V31.3704ZM136.31 31.3704H139.791V34.8518H136.31V31.3704ZM118.902 34.8518H122.384V38.3333H118.902V34.8518ZM122.384 34.8518H125.865V38.3333H122.384V34.8518ZM125.865 34.8518H129.347V38.3333H125.865V34.8518ZM129.347 34.8518H132.828V38.3333H129.347V34.8518ZM132.828 34.8518H136.31V38.3333H132.828V34.8518ZM136.31 34.8518H139.791V38.3333H136.31V34.8518ZM115.421 34.8518H118.902V38.3333H115.421V34.8518ZM111.94 34.8518H115.421V38.3333H111.94V34.8518ZM108.458 31.3704H111.94V34.8518H108.458V31.3704ZM108.458 34.8518H111.94V38.3333H108.458V34.8518ZM104.977 34.8518H108.458V38.3333H104.977V34.8518ZM104.977 38.3333H108.458V41.8148H104.977V38.3333ZM104.977 41.8148H108.458V45.2963H104.977V41.8148ZM108.458 41.8148H111.94V45.2963H108.458V41.8148ZM111.94 41.8148H115.421V45.2963H111.94V41.8148ZM111.94 38.3333H115.421V41.8148H111.94V38.3333ZM108.458 38.3333H111.94V41.8148H108.458V38.3333ZM104.977 45.2963H108.458V48.7778H104.977V45.2963ZM104.977 48.7778H108.458V52.2593H104.977V48.7778ZM104.977 52.2593H108.458V55.7407H104.977V52.2593ZM108.458 52.2593H111.94V55.7407H108.458V52.2593ZM111.94 52.2593H115.421V55.7407H111.94V52.2593ZM111.94 48.7778H115.421V52.2593H111.94V48.7778ZM111.94 45.2963H115.421V48.7778H111.94V45.2963ZM108.458 45.2963H111.94V48.7778H108.458V45.2963ZM108.458 48.7778H111.94V52.2593H108.458V48.7778ZM108.458 55.7407H111.94V59.2222H108.458V55.7407ZM111.94 55.7407H115.421V59.2222H111.94V55.7407ZM115.421 55.7407H118.902V59.2222H115.421V55.7407ZM115.421 52.2593H118.902V55.7407H115.421V52.2593ZM111.94 59.2222H115.421V62.7037H111.94V59.2222ZM115.421 59.2222H118.902V62.7037H115.421V59.2222ZM118.902 59.2222H122.384V62.7037H118.902V59.2222ZM118.902 55.7407H122.384V59.2222H118.902V55.7407ZM122.384 55.7407H125.865V59.2222H122.384V55.7407ZM122.384 59.2222H125.865V62.7037H122.384V59.2222ZM118.902 52.2593H122.384V55.7407H118.902V52.2593ZM122.384 52.2593H125.865V55.7407H122.384V52.2593ZM125.865 52.2593H129.347V55.7407H125.865V52.2593ZM129.347 52.2593H132.828V55.7407H129.347V52.2593ZM132.828 52.2593H136.31V55.7407H132.828V52.2593ZM129.347 55.7407H132.828V59.2222H129.347V55.7407ZM129.347 59.2222H132.828V62.7037H129.347V59.2222ZM125.865 55.7407H129.347V59.2222H125.865V55.7407ZM129.347 48.7778H132.828V52.2593H129.347V48.7778ZM129.347 45.2963H132.828V48.7778H129.347V45.2963ZM129.347 41.8148H132.828V45.2963H129.347V41.8148ZM129.347 38.3333H132.828V41.8148H129.347V38.3333ZM132.828 38.3333H136.31V41.8148H132.828V38.3333ZM136.31 38.3333H139.791V41.8148H136.31V38.3333ZM136.31 41.8148H139.791V45.2963H136.31V41.8148ZM136.31 45.2963H139.791V48.7778H136.31V45.2963ZM136.31 48.7778H139.791V52.2593H136.31V48.7778ZM136.31 52.2593H139.791V55.7407H136.31V52.2593ZM132.828 55.7407H136.31V59.2222H132.828V55.7407ZM132.828 48.7778H136.31V52.2593H132.828V48.7778ZM132.828 45.2963H136.31V48.7778H132.828V45.2963ZM132.828 41.8148H136.31V45.2963H132.828V41.8148ZM132.828 59.2222H136.31V62.7037H132.828V59.2222ZM136.31 59.2222H139.791V62.7037H136.31V59.2222ZM136.31 55.7407H139.791V59.2222H136.31V55.7407ZM129.347 62.7037H132.828V66.1852H129.347V62.7037ZM129.347 66.1852H132.828V69.6667H129.347V66.1852ZM129.347 69.6667H132.828V73.1481H129.347V69.6667ZM132.828 69.6667H136.31V73.1481H132.828V69.6667ZM136.31 69.6667H139.791V73.1481H136.31V69.6667ZM136.31 66.1852H139.791V69.6667H136.31V66.1852ZM136.31 62.7037H139.791V66.1852H136.31V62.7037ZM132.828 62.7037H136.31V66.1852H132.828V62.7037ZM132.828 66.1852H136.31V69.6667H132.828V66.1852ZM132.828 73.1481H136.31V76.6296H132.828V73.1481ZM129.347 73.1481H132.828V76.6296H129.347V73.1481ZM125.865 73.1481H129.347V76.6296H125.865V73.1481ZM125.865 69.6667H129.347V73.1481H125.865V69.6667ZM129.347 76.6296H132.828V80.1111H129.347V76.6296ZM125.865 76.6296H129.347V80.1111H125.865V76.6296ZM122.384 76.6296H125.865V80.1111H122.384V76.6296ZM122.384 73.1481H125.865V76.6296H122.384V73.1481ZM118.902 73.1481H122.384V76.6296H118.902V73.1481ZM115.421 73.1481H118.902V76.6296H115.421V73.1481ZM111.94 76.6296H115.421V80.1111H111.94V76.6296ZM115.421 76.6296H118.902V80.1111H115.421V76.6296ZM118.902 76.6296H122.384V80.1111H118.902V76.6296ZM111.94 73.1481H115.421V76.6296H111.94V73.1481ZM108.458 73.1481H111.94V76.6296H108.458V73.1481ZM111.94 69.6667H115.421V73.1481H111.94V69.6667ZM115.421 69.6667H118.902V73.1481H115.421V69.6667ZM108.458 69.6667H111.94V73.1481H108.458V69.6667ZM111.94 66.1852H115.421V69.6667H111.94V66.1852ZM108.458 66.1852H111.94V69.6667H108.458V66.1852ZM104.977 66.1852H108.458V69.6667H104.977V66.1852ZM104.977 69.6667H108.458V73.1481H104.977V69.6667Z" fill="#94A756"/>
<path d="M146.744 13.963H150.226V17.4444H146.744V13.963ZM146.744 17.4444H150.226V20.9259H146.744V17.4444ZM146.744 20.9259H150.226V24.4074H146.744V20.9259ZM146.744 31.3704H150.226V34.8518H146.744V31.3704ZM146.744 34.8518H150.226V38.3333H146.744V34.8518ZM146.744 38.3333H150.226V41.8148H146.744V38.3333ZM146.744 41.8148H150.226V45.2963H146.744V41.8148ZM146.744 45.2963H150.226V48.7778H146.744V45.2963ZM146.744 48.7778H150.226V52.2593H146.744V48.7778ZM146.744 52.2593H150.226V55.7407H146.744V52.2593ZM146.744 55.7407H150.226V59.2222H146.744V55.7407ZM146.744 59.2222H150.226V62.7037H146.744V59.2222ZM146.744 62.7037H150.226V66.1852H146.744V62.7037ZM150.226 62.7037H153.707V66.1852H150.226V62.7037ZM153.707 62.7037H157.189V66.1852H153.707V62.7037ZM153.707 59.2222H157.189V62.7037H153.707V59.2222ZM153.707 55.7407H157.189V59.2222H153.707V55.7407ZM153.707 52.2593H157.189V55.7407H153.707V52.2593ZM153.707 48.7778H157.189V52.2593H153.707V48.7778ZM153.707 45.2963H157.189V48.7778H153.707V45.2963ZM153.707 41.8148H157.189V45.2963H153.707V41.8148ZM153.707 38.3333H157.189V41.8148H153.707V38.3333ZM153.707 34.8518H157.189V38.3333H153.707V34.8518ZM153.707 13.963H157.189V17.4444H153.707V13.963ZM150.226 13.963H153.707V17.4444H150.226V13.963ZM150.226 17.4444H153.707V20.9259H150.226V17.4444ZM153.707 17.4444H157.189V20.9259H153.707V17.4444ZM153.707 20.9259H157.189V24.4074H153.707V20.9259ZM153.707 31.3704H157.189V34.8518H153.707V31.3704ZM150.226 20.9259H153.707V24.4074H150.226V20.9259ZM150.226 31.3704H153.707V34.8518H150.226V31.3704ZM150.226 34.8518H153.707V38.3333H150.226V34.8518ZM150.226 59.2222H153.707V62.7037H150.226V59.2222ZM150.226 55.7407H153.707V59.2222H150.226V55.7407ZM150.226 52.2593H153.707V55.7407H150.226V52.2593ZM150.226 48.7778H153.707V52.2593H150.226V48.7778ZM150.226 45.2963H153.707V48.7778H150.226V45.2963ZM150.226 41.8148H153.707V45.2963H150.226V41.8148ZM150.226 38.3333H153.707V41.8148H150.226V38.3333Z" fill="#94A756"/>
<path d="M171.149 27.8889H174.63V31.3704H171.149V27.8889ZM174.63 27.8889H178.111V31.3704H174.63V27.8889ZM178.111 27.8889H181.593V31.3704H178.111V27.8889ZM181.593 27.8889H185.074V31.3704H181.593V27.8889ZM185.074 27.8889H188.556V31.3704H185.074V27.8889ZM188.556 27.8889H192.037V31.3704H188.556V27.8889ZM192.037 31.3704H195.519V34.8518H192.037V31.3704ZM188.556 31.3704H192.037V34.8518H188.556V31.3704ZM185.074 31.3704H188.556V34.8518H185.074V31.3704ZM181.593 31.3704H185.074V34.8518H181.593V31.3704ZM178.111 31.3704H181.593V34.8518H178.111V31.3704ZM174.63 31.3704H178.111V34.8518H174.63V31.3704ZM171.149 31.3704H174.63V34.8518H171.149V31.3704ZM167.667 31.3704H171.149V34.8518H167.667V31.3704ZM167.667 34.8518H171.149V38.3333H167.667V34.8518ZM171.149 34.8518H174.63V38.3333H171.149V34.8518ZM164.186 34.8518H167.667V38.3333H164.186V34.8518ZM164.186 38.3333H167.667V41.8148H164.186V38.3333ZM164.186 41.8148H167.667V45.2963H164.186V41.8148ZM167.667 41.8148H171.149V45.2963H167.667V41.8148ZM171.149 41.8148H174.63V45.2963H171.149V41.8148ZM171.149 38.3333H174.63V41.8148H171.149V38.3333ZM167.667 38.3333H171.149V41.8148H167.667V38.3333ZM167.667 45.2963H171.149V48.7778H167.667V45.2963ZM167.667 48.7778H171.149V52.2593H167.667V48.7778ZM167.667 52.2593H171.149V55.7407H167.667V52.2593ZM164.186 52.2593H167.667V55.7407H164.186V52.2593ZM164.186 55.7407H167.667V59.2222H164.186V55.7407ZM164.186 48.7778H167.667V52.2593H164.186V48.7778ZM164.186 45.2963H167.667V48.7778H164.186V45.2963ZM171.149 45.2963H174.63V48.7778H171.149V45.2963ZM171.149 48.7778H174.63V52.2593H171.149V48.7778ZM171.149 52.2593H174.63V55.7407H171.149V52.2593ZM171.149 55.7407H174.63V59.2222H171.149V55.7407ZM167.667 55.7407H171.149V59.2222H167.667V55.7407ZM167.667 59.2222H171.149V62.7037H167.667V59.2222ZM171.149 59.2222H174.63V62.7037H171.149V59.2222ZM174.63 59.2222H178.111V62.7037H174.63V59.2222ZM174.63 55.7407H178.111V59.2222H174.63V55.7407ZM171.149 62.7037H174.63V66.1852H171.149V62.7037ZM174.63 62.7037H178.111V66.1852H174.63V62.7037ZM178.111 62.7037H181.593V66.1852H178.111V62.7037ZM181.593 62.7037H185.074V66.1852H181.593V62.7037ZM185.074 62.7037H188.556V66.1852H185.074V62.7037ZM188.556 62.7037H192.037V66.1852H188.556V62.7037ZM185.074 59.2222H188.556V62.7037H185.074V59.2222ZM181.593 59.2222H185.074V62.7037H181.593V59.2222ZM178.111 59.2222H181.593V62.7037H178.111V59.2222ZM188.556 59.2222H192.037V62.7037H188.556V59.2222ZM192.037 59.2222H195.519V62.7037H192.037V59.2222ZM188.556 55.7407H192.037V59.2222H188.556V55.7407ZM185.074 55.7407H188.556V59.2222H185.074V55.7407ZM192.037 55.7407H195.519V59.2222H192.037V55.7407ZM195.519 55.7407H199V59.2222H195.519V55.7407ZM192.037 38.3333H195.519V41.8148H192.037V38.3333ZM195.519 38.3333H199V41.8148H195.519V38.3333ZM195.519 34.8518H199V38.3333H195.519V34.8518ZM188.556 38.3333H192.037V41.8148H188.556V38.3333ZM188.556 34.8518H192.037V38.3333H188.556V34.8518ZM192.037 34.8518H195.519V38.3333H192.037V34.8518ZM178.111 55.7407H181.593V59.2222H178.111V55.7407ZM181.593 55.7407H185.074V59.2222H181.593V55.7407ZM195.519 41.8148H199V45.2963H195.519V41.8148ZM192.037 41.8148H195.519V45.2963H192.037V41.8148ZM188.556 41.8148H192.037V45.2963H188.556V41.8148ZM178.111 45.2963H181.593V48.7778H178.111V45.2963ZM181.593 45.2963H185.074V48.7778H181.593V45.2963ZM185.074 45.2963H188.556V48.7778H185.074V45.2963ZM188.556 45.2963H192.037V48.7778H188.556V45.2963ZM192.037 45.2963H195.519V48.7778H192.037V45.2963ZM195.519 45.2963H199V48.7778H195.519V45.2963ZM174.63 45.2963H178.111V48.7778H174.63V45.2963ZM174.63 34.8518H178.111V38.3333H174.63V34.8518ZM178.111 34.8518H181.593V38.3333H178.111V34.8518ZM181.593 34.8518H185.074V38.3333H181.593V34.8518ZM185.074 34.8518H188.556V38.3333H185.074V34.8518ZM195.519 48.7778H199V52.2593H195.519V48.7778ZM192.037 48.7778H195.519V52.2593H192.037V48.7778ZM185.074 48.7778H188.556V52.2593H185.074V48.7778ZM181.593 48.7778H185.074V52.2593H181.593V48.7778ZM178.111 48.7778H181.593V52.2593H178.111V48.7778ZM174.63 48.7778H178.111V52.2593H174.63V48.7778ZM188.556 48.7778H192.037V52.2593H188.556V48.7778Z" fill="#94A756"/>
<path d="M205.953 13.963H209.435V17.4444H205.953V13.963ZM205.953 17.4444H209.435V20.9259H205.953V17.4444ZM205.953 20.9259H209.435V24.4074H205.953V20.9259ZM205.953 24.4074H209.435V27.8889H205.953V24.4074ZM205.953 27.8889H209.435V31.3704H205.953V27.8889ZM205.953 31.3704H209.435V34.8518H205.953V31.3704ZM205.953 59.2222H209.435V62.7037H205.953V59.2222ZM205.953 62.7037H209.435V66.1852H205.953V62.7037ZM209.435 62.7037H212.916V66.1852H209.435V62.7037ZM212.916 13.963H216.398V17.4444H212.916V13.963ZM209.435 13.963H212.916V17.4444H209.435V13.963ZM209.435 17.4444H212.916V20.9259H209.435V17.4444ZM212.916 17.4444H216.398V20.9259H212.916V17.4444ZM212.916 20.9259H216.398V24.4074H212.916V20.9259ZM212.916 24.4074H216.398V27.8889H212.916V24.4074ZM209.435 27.8889H212.916V31.3704H209.435V27.8889ZM209.435 24.4074H212.916V27.8889H209.435V24.4074ZM209.435 20.9259H212.916V24.4074H209.435V20.9259ZM219.879 27.8889H223.361V31.3704H219.879V27.8889ZM223.361 27.8889H226.842V31.3704H223.361V27.8889ZM226.842 27.8889H230.324V31.3704H226.842V27.8889ZM230.324 27.8889H233.805V31.3704H230.324V27.8889ZM233.805 31.3704H237.286V34.8518H233.805V31.3704ZM230.324 31.3704H233.805V34.8518H230.324V31.3704ZM226.842 31.3704H230.324V34.8518H226.842V31.3704ZM223.361 31.3704H226.842V34.8518H223.361V31.3704ZM219.879 31.3704H223.361V34.8518H219.879V31.3704ZM216.398 31.3704H219.879V34.8518H216.398V31.3704ZM209.435 31.3704H212.916V34.8518H209.435V31.3704ZM212.916 52.2593H216.398V55.7407H212.916V52.2593ZM216.398 59.2222H219.879V62.7037H216.398V59.2222ZM216.398 55.7407H219.879V59.2222H216.398V55.7407ZM216.398 62.7037H219.879V66.1852H216.398V62.7037ZM219.879 62.7037H223.361V66.1852H219.879V62.7037ZM223.361 62.7037H226.842V66.1852H223.361V62.7037ZM226.842 62.7037H230.324V66.1852H226.842V62.7037ZM230.324 62.7037H233.805V66.1852H230.324V62.7037ZM226.842 59.2222H230.324V62.7037H226.842V59.2222ZM223.361 59.2222H226.842V62.7037H223.361V59.2222ZM219.879 59.2222H223.361V62.7037H219.879V59.2222ZM230.324 59.2222H233.805V62.7037H230.324V59.2222ZM233.805 59.2222H237.286V62.7037H233.805V59.2222ZM230.324 55.7407H233.805V59.2222H230.324V55.7407ZM226.842 55.7407H230.324V59.2222H226.842V55.7407ZM233.805 55.7407H237.286V59.2222H233.805V55.7407ZM237.286 55.7407H240.768V59.2222H237.286V55.7407ZM237.286 52.2593H240.768V55.7407H237.286V52.2593ZM233.805 48.7778H237.286V52.2593H233.805V48.7778ZM233.805 52.2593H237.286V55.7407H233.805V52.2593ZM230.324 52.2593H233.805V55.7407H230.324V52.2593ZM237.286 48.7778H240.768V52.2593H237.286V48.7778ZM237.286 45.2963H240.768V48.7778H237.286V45.2963ZM233.805 45.2963H237.286V48.7778H233.805V45.2963ZM233.805 41.8148H237.286V45.2963H233.805V41.8148ZM233.805 38.3333H237.286V41.8148H233.805V38.3333ZM237.286 38.3333H240.768V41.8148H237.286V38.3333ZM237.286 34.8518H240.768V38.3333H237.286V34.8518ZM237.286 41.8148H240.768V45.2963H237.286V41.8148ZM230.324 45.2963H233.805V48.7778H230.324V45.2963ZM230.324 48.7778H233.805V52.2593H230.324V48.7778ZM230.324 41.8148H233.805V45.2963H230.324V41.8148ZM230.324 38.3333H233.805V41.8148H230.324V38.3333ZM230.324 34.8518H233.805V38.3333H230.324V34.8518ZM226.842 34.8518H230.324V38.3333H226.842V34.8518ZM233.805 34.8518H237.286V38.3333H233.805V34.8518ZM216.398 34.8518H219.879V38.3333H216.398V34.8518ZM219.879 34.8518H223.361V38.3333H219.879V34.8518ZM223.361 34.8518H226.842V38.3333H223.361V34.8518ZM219.879 55.7407H223.361V59.2222H219.879V55.7407ZM223.361 55.7407H226.842V59.2222H223.361V55.7407ZM212.916 62.7037H216.398V66.1852H212.916V62.7037ZM212.916 59.2222H216.398V62.7037H212.916V59.2222ZM212.916 55.7407H216.398V59.2222H212.916V55.7407ZM209.435 55.7407H212.916V59.2222H209.435V55.7407ZM209.435 59.2222H212.916V62.7037H209.435V59.2222ZM209.435 52.2593H212.916V55.7407H209.435V52.2593ZM212.916 48.7778H216.398V52.2593H212.916V48.7778ZM212.916 45.2963H216.398V48.7778H212.916V45.2963ZM212.916 41.8148H216.398V45.2963H212.916V41.8148ZM212.916 38.3333H216.398V41.8148H212.916V38.3333ZM212.916 34.8518H216.398V38.3333H212.916V34.8518ZM212.916 31.3704H216.398V34.8518H212.916V31.3704ZM212.916 27.8889H216.398V31.3704H212.916V27.8889ZM209.435 34.8518H212.916V38.3333H209.435V34.8518ZM209.435 38.3333H212.916V41.8148H209.435V38.3333ZM209.435 41.8148H212.916V45.2963H209.435V41.8148ZM209.435 45.2963H212.916V48.7778H209.435V45.2963ZM209.435 48.7778H212.916V52.2593H209.435V48.7778ZM205.953 52.2593H209.435V55.7407H205.953V52.2593ZM205.953 55.7407H209.435V59.2222H205.953V55.7407ZM205.953 48.7778H209.435V52.2593H205.953V48.7778ZM205.953 45.2963H209.435V48.7778H205.953V45.2963ZM205.953 41.8148H209.435V45.2963H205.953V41.8148ZM205.953 38.3333H209.435V41.8148H205.953V38.3333ZM205.953 34.8518H209.435V38.3333H205.953V34.8518ZM216.398 38.3333H219.879V41.8148H216.398V38.3333Z" fill="#94A756"/>
<path d="M254.684 27.8889H258.165V31.3704H254.684V27.8889ZM258.165 27.8889H261.647V31.3704H258.165V27.8889ZM261.647 27.8889H265.128V31.3704H261.647V27.8889ZM265.128 27.8889H268.61V31.3704H265.128V27.8889ZM268.61 27.8889H272.091V31.3704H268.61V27.8889ZM272.091 27.8889H275.573V31.3704H272.091V27.8889ZM275.573 31.3704H279.054V34.8518H275.573V31.3704ZM272.091 31.3704H275.573V34.8518H272.091V31.3704ZM268.61 31.3704H272.091V34.8518H268.61V31.3704ZM265.128 31.3704H268.61V34.8518H265.128V31.3704ZM261.647 31.3704H265.128V34.8518H261.647V31.3704ZM258.165 31.3704H261.647V34.8518H258.165V31.3704ZM254.684 31.3704H258.165V34.8518H254.684V31.3704ZM251.202 31.3704H254.684V34.8518H251.202V31.3704ZM251.202 34.8518H254.684V38.3333H251.202V34.8518ZM254.684 34.8518H258.165V38.3333H254.684V34.8518ZM247.721 34.8518H251.202V38.3333H247.721V34.8518ZM247.721 38.3333H251.202V41.8148H247.721V38.3333ZM247.721 41.8148H251.202V45.2963H247.721V41.8148ZM251.202 41.8148H254.684V45.2963H251.202V41.8148ZM254.684 41.8148H258.165V45.2963H254.684V41.8148ZM254.684 38.3333H258.165V41.8148H254.684V38.3333ZM251.202 38.3333H254.684V41.8148H251.202V38.3333ZM251.202 45.2963H254.684V48.7778H251.202V45.2963ZM251.202 48.7778H254.684V52.2593H251.202V48.7778ZM251.202 52.2593H254.684V55.7407H251.202V52.2593ZM247.721 52.2593H251.202V55.7407H247.721V52.2593ZM247.721 55.7407H251.202V59.2222H247.721V55.7407ZM247.721 48.7778H251.202V52.2593H247.721V48.7778ZM247.721 45.2963H251.202V48.7778H247.721V45.2963ZM254.684 45.2963H258.165V48.7778H254.684V45.2963ZM254.684 48.7778H258.165V52.2593H254.684V48.7778ZM254.684 52.2593H258.165V55.7407H254.684V52.2593ZM254.684 55.7407H258.165V59.2222H254.684V55.7407ZM251.202 55.7407H254.684V59.2222H251.202V55.7407ZM251.202 59.2222H254.684V62.7037H251.202V59.2222ZM254.684 59.2222H258.165V62.7037H254.684V59.2222ZM258.165 59.2222H261.647V62.7037H258.165V59.2222ZM258.165 55.7407H261.647V59.2222H258.165V55.7407ZM254.684 62.7037H258.165V66.1852H254.684V62.7037ZM258.165 62.7037H261.647V66.1852H258.165V62.7037ZM261.647 62.7037H265.128V66.1852H261.647V62.7037ZM265.128 62.7037H268.61V66.1852H265.128V62.7037ZM268.61 62.7037H272.091V66.1852H268.61V62.7037ZM272.091 62.7037H275.573V66.1852H272.091V62.7037ZM268.61 59.2222H272.091V62.7037H268.61V59.2222ZM265.128 59.2222H268.61V62.7037H265.128V59.2222ZM261.647 59.2222H265.128V62.7037H261.647V59.2222ZM272.091 59.2222H275.573V62.7037H272.091V59.2222ZM275.573 59.2222H279.054V62.7037H275.573V59.2222ZM272.091 55.7407H275.573V59.2222H272.091V55.7407ZM268.61 55.7407H272.091V59.2222H268.61V55.7407ZM275.573 55.7407H279.054V59.2222H275.573V55.7407ZM279.054 55.7407H282.536V59.2222H279.054V55.7407ZM279.054 52.2593H282.536V55.7407H279.054V52.2593ZM275.573 48.7778H279.054V52.2593H275.573V48.7778ZM275.573 52.2593H279.054V55.7407H275.573V52.2593ZM272.091 52.2593H275.573V55.7407H272.091V52.2593ZM279.054 48.7778H282.536V52.2593H279.054V48.7778ZM279.054 45.2963H282.536V48.7778H279.054V45.2963ZM275.573 45.2963H279.054V48.7778H275.573V45.2963ZM275.573 41.8148H279.054V45.2963H275.573V41.8148ZM275.573 38.3333H279.054V41.8148H275.573V38.3333ZM279.054 38.3333H282.536V41.8148H279.054V38.3333ZM279.054 34.8518H282.536V38.3333H279.054V34.8518ZM279.054 41.8148H282.536V45.2963H279.054V41.8148ZM272.091 45.2963H275.573V48.7778H272.091V45.2963ZM272.091 48.7778H275.573V52.2593H272.091V48.7778ZM272.091 41.8148H275.573V45.2963H272.091V41.8148ZM272.091 38.3333H275.573V41.8148H272.091V38.3333ZM272.091 34.8518H275.573V38.3333H272.091V34.8518ZM268.61 34.8518H272.091V38.3333H268.61V34.8518ZM275.573 34.8518H279.054V38.3333H275.573V34.8518ZM258.165 34.8518H261.647V38.3333H258.165V34.8518ZM261.647 34.8518H265.128V38.3333H261.647V34.8518ZM265.128 34.8518H268.61V38.3333H265.128V34.8518ZM261.647 55.7407H265.128V59.2222H261.647V55.7407ZM265.128 55.7407H268.61V59.2222H265.128V55.7407Z" fill="#94A756"/>
<path d="M296.451 27.8889H299.933V31.3704H296.451V27.8889ZM292.97 31.3704H296.451V34.8518H292.97V31.3704ZM292.97 34.8518H296.451V38.3333H292.97V34.8518ZM289.488 31.3704H292.97V34.8518H289.488V31.3704ZM289.488 27.8889H292.97V31.3704H289.488V27.8889ZM292.97 27.8889H296.451V31.3704H292.97V27.8889ZM292.97 38.3333H296.451V41.8148H292.97V38.3333ZM289.488 38.3333H292.97V41.8148H289.488V38.3333ZM289.488 41.8148H292.97V45.2963H289.488V41.8148ZM289.488 34.8518H292.97V38.3333H289.488V34.8518ZM289.488 45.2963H292.97V48.7778H289.488V45.2963ZM289.488 48.7778H292.97V52.2593H289.488V48.7778ZM289.488 52.2593H292.97V55.7407H289.488V52.2593ZM289.488 55.7407H292.97V59.2222H289.488V55.7407ZM289.488 59.2222H292.97V62.7037H289.488V59.2222ZM292.97 59.2222H296.451V62.7037H292.97V59.2222ZM296.451 59.2222H299.933V62.7037H296.451V59.2222ZM296.451 62.7037H299.933V66.1852H296.451V62.7037ZM292.97 62.7037H296.451V66.1852H292.97V62.7037ZM289.488 62.7037H292.97V66.1852H289.488V62.7037ZM296.451 55.7407H299.933V59.2222H296.451V55.7407ZM296.451 52.2593H299.933V55.7407H296.451V52.2593ZM296.451 48.7778H299.933V52.2593H296.451V48.7778ZM296.451 45.2963H299.933V48.7778H296.451V45.2963ZM296.451 41.8148H299.933V45.2963H296.451V41.8148ZM296.451 38.3333H299.933V41.8148H296.451V38.3333ZM296.451 34.8518H299.933V38.3333H296.451V34.8518ZM296.451 31.3704H299.933V34.8518H296.451V31.3704ZM292.97 41.8148H296.451V45.2963H292.97V41.8148ZM292.97 48.7778H296.451V52.2593H292.97V48.7778ZM292.97 52.2593H296.451V55.7407H292.97V52.2593ZM292.97 55.7407H296.451V59.2222H292.97V55.7407ZM292.97 45.2963H296.451V48.7778H292.97V45.2963ZM313.859 62.7037H317.34V66.1852H313.859V62.7037ZM317.34 62.7037H320.822V66.1852H317.34V62.7037ZM317.34 59.2222H320.822V62.7037H317.34V59.2222ZM317.34 55.7407H320.822V59.2222H317.34V55.7407ZM317.34 52.2593H320.822V55.7407H317.34V52.2593ZM320.822 52.2593H324.303V55.7407H320.822V52.2593ZM320.822 48.7778H324.303V52.2593H320.822V48.7778ZM320.822 55.7407H324.303V59.2222H320.822V55.7407ZM320.822 59.2222H324.303V62.7037H320.822V59.2222ZM320.822 62.7037H324.303V66.1852H320.822V62.7037ZM313.859 59.2222H317.34V62.7037H313.859V59.2222ZM313.859 55.7407H317.34V59.2222H313.859V55.7407ZM313.859 52.2593H317.34V55.7407H313.859V52.2593ZM313.859 48.7778H317.34V52.2593H313.859V48.7778ZM313.859 45.2963H317.34V48.7778H313.859V45.2963ZM313.859 41.8148H317.34V45.2963H313.859V41.8148ZM313.859 38.3333H317.34V41.8148H313.859V38.3333ZM313.859 34.8518H317.34V38.3333H313.859V34.8518ZM313.859 31.3704H317.34V34.8518H313.859V31.3704ZM310.377 31.3704H313.859V34.8518H310.377V31.3704ZM306.896 31.3704H310.377V34.8518H306.896V31.3704ZM317.34 34.8518H320.822V38.3333H317.34V34.8518ZM317.34 38.3333H320.822V41.8148H317.34V38.3333ZM317.34 41.8148H320.822V45.2963H317.34V41.8148ZM317.34 45.2963H320.822V48.7778H317.34V45.2963ZM317.34 48.7778H320.822V52.2593H317.34V48.7778ZM320.822 45.2963H324.303V48.7778H320.822V45.2963ZM320.822 41.8148H324.303V45.2963H320.822V41.8148ZM320.822 38.3333H324.303V41.8148H320.822V38.3333ZM320.822 34.8518H324.303V38.3333H320.822V34.8518ZM317.34 31.3704H320.822V34.8518H317.34V31.3704ZM313.859 27.8889H317.34V31.3704H313.859V27.8889ZM310.377 27.8889H313.859V31.3704H310.377V27.8889ZM306.896 27.8889H310.377V31.3704H306.896V27.8889ZM303.414 27.8889H306.896V31.3704H303.414V27.8889ZM303.414 31.3704H306.896V34.8518H303.414V31.3704ZM299.933 31.3704H303.414V34.8518H299.933V31.3704ZM299.933 34.8518H303.414V38.3333H299.933V34.8518ZM303.414 34.8518H306.896V38.3333H303.414V34.8518ZM306.896 34.8518H310.377V38.3333H306.896V34.8518ZM310.377 34.8518H313.859V38.3333H310.377V34.8518ZM299.933 38.3333H303.414V41.8148H299.933V38.3333Z" fill="#94A756"/>
<path d="M338.219 27.8889H341.7V31.3704H338.219V27.8889ZM341.7 27.8889H345.182V31.3704H341.7V27.8889ZM345.182 27.8889H348.663V31.3704H345.182V27.8889ZM348.663 27.8889H352.145V31.3704H348.663V27.8889ZM352.145 27.8889H355.626V31.3704H352.145V27.8889ZM355.626 27.8889H359.108V31.3704H355.626V27.8889ZM359.108 31.3704H362.589V34.8518H359.108V31.3704ZM355.626 31.3704H359.108V34.8518H355.626V31.3704ZM352.145 31.3704H355.626V34.8518H352.145V31.3704ZM348.663 31.3704H352.145V34.8518H348.663V31.3704ZM345.182 31.3704H348.663V34.8518H345.182V31.3704ZM341.7 31.3704H345.182V34.8518H341.7V31.3704ZM338.219 31.3704H341.7V34.8518H338.219V31.3704ZM334.737 31.3704H338.219V34.8518H334.737V31.3704ZM334.737 34.8518H338.219V38.3333H334.737V34.8518ZM338.219 34.8518H341.7V38.3333H338.219V34.8518ZM331.256 34.8518H334.737V38.3333H331.256V34.8518ZM331.256 38.3333H334.737V41.8148H331.256V38.3333ZM331.256 41.8148H334.737V45.2963H331.256V41.8148ZM334.737 41.8148H338.219V45.2963H334.737V41.8148ZM338.219 41.8148H341.7V45.2963H338.219V41.8148ZM338.219 38.3333H341.7V41.8148H338.219V38.3333ZM334.737 38.3333H338.219V41.8148H334.737V38.3333ZM334.737 45.2963H338.219V48.7778H334.737V45.2963ZM334.737 48.7778H338.219V52.2593H334.737V48.7778ZM334.737 52.2593H338.219V55.7407H334.737V52.2593ZM331.256 52.2593H334.737V55.7407H331.256V52.2593ZM331.256 55.7407H334.737V59.2222H331.256V55.7407ZM331.256 48.7778H334.737V52.2593H331.256V48.7778ZM331.256 45.2963H334.737V48.7778H331.256V45.2963ZM338.219 45.2963H341.7V48.7778H338.219V45.2963ZM338.219 48.7778H341.7V52.2593H338.219V48.7778ZM338.219 52.2593H341.7V55.7407H338.219V52.2593ZM338.219 55.7407H341.7V59.2222H338.219V55.7407ZM334.737 55.7407H338.219V59.2222H334.737V55.7407ZM334.737 59.2222H338.219V62.7037H334.737V59.2222ZM338.219 59.2222H341.7V62.7037H338.219V59.2222ZM341.7 59.2222H345.182V62.7037H341.7V59.2222ZM341.7 55.7407H345.182V59.2222H341.7V55.7407ZM338.219 62.7037H341.7V66.1852H338.219V62.7037ZM341.7 62.7037H345.182V66.1852H341.7V62.7037ZM345.182 62.7037H348.663V66.1852H345.182V62.7037ZM348.663 62.7037H352.145V66.1852H348.663V62.7037ZM352.145 62.7037H355.626V66.1852H352.145V62.7037ZM355.626 62.7037H359.108V66.1852H355.626V62.7037ZM352.145 59.2222H355.626V62.7037H352.145V59.2222ZM348.663 59.2222H352.145V62.7037H348.663V59.2222ZM345.182 59.2222H348.663V62.7037H345.182V59.2222ZM355.626 59.2222H359.108V62.7037H355.626V59.2222ZM359.108 59.2222H362.589V62.7037H359.108V59.2222ZM355.626 55.7407H359.108V59.2222H355.626V55.7407ZM352.145 55.7407H355.626V59.2222H352.145V55.7407ZM359.108 55.7407H362.589V59.2222H359.108V55.7407ZM362.589 55.7407H366.071V59.2222H362.589V55.7407ZM359.108 38.3333H362.589V41.8148H359.108V38.3333ZM362.589 38.3333H366.071V41.8148H362.589V38.3333ZM362.589 34.8518H366.071V38.3333H362.589V34.8518ZM355.626 38.3333H359.108V41.8148H355.626V38.3333ZM355.626 34.8518H359.108V38.3333H355.626V34.8518ZM359.108 34.8518H362.589V38.3333H359.108V34.8518ZM345.182 55.7407H348.663V59.2222H345.182V55.7407ZM348.663 55.7407H352.145V59.2222H348.663V55.7407ZM362.589 41.8148H366.071V45.2963H362.589V41.8148ZM359.108 41.8148H362.589V45.2963H359.108V41.8148ZM355.626 41.8148H359.108V45.2963H355.626V41.8148ZM345.182 45.2963H348.663V48.7778H345.182V45.2963ZM348.663 45.2963H352.145V48.7778H348.663V45.2963ZM352.145 45.2963H355.626V48.7778H352.145V45.2963ZM355.626 45.2963H359.108V48.7778H355.626V45.2963ZM359.108 45.2963H362.589V48.7778H359.108V45.2963ZM362.589 45.2963H366.071V48.7778H362.589V45.2963ZM341.7 45.2963H345.182V48.7778H341.7V45.2963ZM341.7 34.8518H345.182V38.3333H341.7V34.8518ZM345.182 34.8518H348.663V38.3333H345.182V34.8518ZM348.663 34.8518H352.145V38.3333H348.663V34.8518ZM352.145 34.8518H355.626V38.3333H352.145V34.8518ZM362.589 48.7778H366.071V52.2593H362.589V48.7778ZM359.108 48.7778H362.589V52.2593H359.108V48.7778ZM352.145 48.7778H355.626V52.2593H352.145V48.7778ZM348.663 48.7778H352.145V52.2593H348.663V48.7778ZM345.182 48.7778H348.663V52.2593H345.182V48.7778ZM341.7 48.7778H345.182V52.2593H341.7V48.7778ZM355.626 48.7778H359.108V52.2593H355.626V48.7778Z" fill="#94A756"/>
<path d="M13 14.7407H16.4815V18.2222H13V14.7407ZM16.4815 14.7407H19.963V18.2222H16.4815V14.7407ZM19.963 14.7407H23.4444V18.2222H19.963V14.7407ZM19.963 18.2222H23.4444V21.7037H19.963V18.2222ZM19.963 21.7037H23.4444V25.1852H19.963V21.7037ZM16.4815 21.7037H19.963V25.1852H16.4815V21.7037ZM13 21.7037H16.4815V25.1852H13V21.7037ZM13 18.2222H16.4815V21.7037H13V18.2222ZM16.4815 18.2222H19.963V21.7037H16.4815V18.2222Z" fill="black"/>
<path d="M29 14.7407H32.4815V18.2222H29V14.7407ZM32.4815 14.7407H35.963V18.2222H32.4815V14.7407ZM35.963 14.7407H39.4444V18.2222H35.963V14.7407ZM35.963 18.2222H39.4444V21.7037H35.963V18.2222ZM35.963 21.7037H39.4444V25.1852H35.963V21.7037ZM32.4815 21.7037H35.963V25.1852H32.4815V21.7037ZM29 21.7037H32.4815V25.1852H29V21.7037ZM29 18.2222H32.4815V21.7037H29V18.2222ZM32.4815 18.2222H35.963V21.7037H32.4815V18.2222Z" fill="black"/>
<path d="M20.3704 0H22.7407V2.37037H20.3704V0ZM22.7407 0H25.1111V2.37037H22.7407V0ZM25.1111 0H27.4815V2.37037H25.1111V0ZM25.1111 2.37037H27.4815V4.74074H25.1111V2.37037ZM27.4815 2.37037H29.8519V4.74074H27.4815V2.37037ZM27.4815 4.74074H29.8519V7.11111H27.4815V4.74074ZM29.8519 4.74074H32.2222V7.11111H29.8519V4.74074ZM29.8519 7.11111H32.2222V9.48148H29.8519V7.11111ZM32.2222 7.11111H34.5926V9.48148H32.2222V7.11111ZM32.2222 9.48148H34.5926V11.8519H32.2222V9.48148ZM34.5926 9.48148H36.963V11.8519H34.5926V9.48148ZM34.5926 11.8519H36.963V14.2222H34.5926V11.8519ZM32.2222 11.8519H34.5926V14.2222H32.2222V11.8519ZM29.8519 11.8519H32.2222V14.2222H29.8519V11.8519ZM29.8519 9.48148H32.2222V11.8519H29.8519V9.48148ZM27.4815 9.48148H29.8519V11.8519H27.4815V9.48148ZM27.4815 7.11111H29.8519V9.48148H27.4815V7.11111ZM25.1111 7.11111H27.4815V9.48148H25.1111V7.11111ZM25.1111 4.74074H27.4815V7.11111H25.1111V4.74074ZM22.7407 4.74074H25.1111V7.11111H22.7407V4.74074ZM22.7407 2.37037H25.1111V4.74074H22.7407V2.37037ZM20.3704 2.37037H22.7407V4.74074H20.3704V2.37037ZM20.3704 4.74074H22.7407V7.11111H20.3704V4.74074ZM20.3704 7.11111H22.7407V9.48148H20.3704V7.11111ZM18 7.11111H20.3704V9.48148H18V7.11111ZM18 9.48148H20.3704V11.8519H18V9.48148ZM15.6296 9.48148H18V11.8519H15.6296V9.48148ZM15.6296 11.8519H18V14.2222H15.6296V11.8519ZM13.2593 11.8519H15.6296V14.2222H13.2593V11.8519ZM10.8889 11.8519H13.2593V14.2222H10.8889V11.8519ZM10.8889 9.48148H13.2593V11.8519H10.8889V9.48148ZM13.2593 9.48148H15.6296V11.8519H13.2593V9.48148ZM13.2593 7.11111H15.6296V9.48148H13.2593V7.11111ZM15.6296 7.11111H18V9.48148H15.6296V7.11111ZM15.6296 4.74074H18V7.11111H15.6296V4.74074ZM18 4.74074H20.3704V7.11111H18V4.74074ZM18 2.37037H20.3704V4.74074H18V2.37037Z" fill="#D36255"/>
</g>
<defs>
<filter id="filter0_d_228_2" x="0" y="0" width="370.071" height="88.1111" filterUnits="userSpaceOnUse" color-interpolation-filters="sRGB">
<feFlood flood-opacity="0" result="BackgroundImageFix"/>
<feColorMatrix in="SourceAlpha" type="matrix" values="0 0 0 0 0 0 0 0 0 0 0 0 0 0 0 0 0 0 127 0" result="hardAlpha"/>
<feOffset dy="4"/>
<feGaussianBlur stdDeviation="2"/>
<feComposite in2="hardAlpha" operator="out"/>
<feColorMatrix type="matrix" values="0 0 0 0 0 0 0 0 0 0 0 0 0 0 0 0 0 0 0.25 0"/>
<feBlend mode="normal" in2="BackgroundImageFix" result="effect1_dropShadow_228_2"/>
<feBlend mode="normal" in="SourceGraphic" in2="effect1_dropShadow_228_2" result="shape"/>
</filter>
</defs>
</svg>
